Coordinates
version=1
nRows=8
nColumns=63
inDegrees=yes

Units are S.I. units (second, meters, Newtons, ...)
If the header above contains a line with 'inDegrees', this indicates whether rotational values are in degrees (yes) or radians (no).

endheader
time	pelvis_tilt	pelvis_list	pelvis_rotation	pelvis_tx	pelvis_ty	pelvis_tz	hip_flexion_r	hip_adduction_r	hip_rotation_r	knee_angle_r	knee_angle_r_beta	ankle_angle_r	subtalar_angle_r	mtp_angle_r	hip_flexion_l	hip_adduction_l	hip_rotation_l	knee_angle_l	knee_angle_l_beta	ankle_angle_l	subtalar_angle_l	mtp_angle_l	L5_S1_Flex_Ext	L5_S1_Lat_Bending	L5_S1_axial_rotation	L4_L5_Flex_Ext	L4_L5_Lat_Bending	L4_L5_axial_rotation	L3_L4_Flex_Ext	L3_L4_Lat_Bending	L3_L4_axial_rotation	L2_L3_Flex_Ext	L2_L3_Lat_Bending	L2_L3_axial_rotation	L1_L2_Flex_Ext	L1_L2_Lat_Bending	L1_L2_axial_rotation	L1_T12_Flex_Ext	L1_T12_Lat_Bending	L1_T12_axial_rotation	Abs_r3	Abs_r2	Abs_r1	Abs_t1	Abs_t2	neck_flexion	neck_bending	neck_rotation	arm_flex_r	arm_add_r	arm_rot_r	elbow_flex_r	pro_sup_r	wrist_flex_r	wrist_dev_r	arm_flex_l	arm_add_l	arm_rot_l	elbow_flex_l	pro_sup_l	wrist_flex_l	wrist_dev_l
2.288136	13.214656	-41.099041	107.178324	0.188818	0.541585	1.083251	67.383445	-1.724779	-3.357232	28.111755	0.490643	19.672020	-13.592859	0.000000	65.494094	-0.536578	3.378964	21.014831	0.366778	26.550863	1.018117	0.000000	-0.049041	0.483471	2.164000	-0.091074	0.643017	2.299250	-0.080570	1.175512	2.299250	-0.056049	1.175512	1.893500	-0.045540	0.985895	1.758250	-0.028022	0.748897	1.623000	-0.350296	5.469125	12.035518	0.000000	0.000000	2.838584	-1.439063	-8.389939	90.641939	-27.986929	48.074865	47.709179	88.487238	-15.666763	1.191879	25.006931	-9.427560	17.182417	122.744137	88.676227	-18.648384	6.947665
2.305085	14.399641	-41.115554	108.048142	0.189144	0.539079	1.084484	68.116473	-1.351357	-3.752728	28.901729	0.504430	19.790396	-14.370024	0.000000	66.584359	-0.908558	3.766878	22.316756	0.389501	27.127847	1.425255	0.000000	-0.043287	0.602607	2.236229	-0.080387	0.801468	2.375993	-0.071115	1.465179	2.375993	-0.049472	1.465179	1.956701	-0.040196	1.228837	1.816936	-0.024734	0.933439	1.677172	-0.309191	6.816814	12.437236	0.000000	0.000000	3.694393	-1.973587	-8.354243	91.240356	-28.150797	49.710091	46.325005	88.086850	-16.276068	1.906434	25.364776	-9.015106	16.167575	124.334964	88.612978	-17.970753	6.483016
2.322034	15.507073	-41.005213	108.717775	0.189716	0.536690	1.085441	68.725591	-0.874057	-4.098799	29.618954	0.516948	19.923563	-15.066505	0.000000	67.596938	-1.352474	4.165985	23.682905	0.413345	27.742236	1.754538	0.000000	-0.044270	0.715382	2.286597	-0.082214	0.951458	2.429509	-0.072731	1.739379	2.429509	-0.050596	1.739379	2.000772	-0.041109	1.458807	1.857860	-0.025296	1.108126	1.714948	-0.316217	8.092542	12.717366	0.000000	0.000000	4.484076	-2.378382	-8.158033	91.503425	-28.110399	51.052327	45.353227	87.772979	-16.610963	2.559650	26.152175	-8.560538	14.881541	125.713361	88.544773	-17.192917	6.103168
2.338983	16.664237	-40.740044	109.350988	0.190274	0.534507	1.086114	69.158079	-0.308227	-4.543958	30.221738	0.527469	20.060760	-15.676909	0.000000	68.522422	-1.857352	4.726563	25.085565	0.437826	28.385603	2.017346	0.000000	-0.051354	0.839429	2.302728	-0.095369	1.116441	2.446649	-0.084369	2.040988	2.446649	-0.058692	2.040988	2.014887	-0.047687	1.711764	1.870967	-0.029344	1.300275	1.727046	-0.366815	9.495788	12.807084	0.000000	0.000000	5.156182	-2.761441	-7.800932	91.481774	-27.959954	52.193836	44.779803	87.556416	-16.700305	3.164264	27.343274	-8.005450	13.340850	126.822948	88.482493	-16.382242	5.903277
2.355932	17.881291	-40.308381	110.005980	0.190719	0.532624	1.086469	69.372832	0.309393	-5.139235	30.685391	0.535561	20.211735	-16.169382	0.000000	69.322194	-2.392132	5.466378	26.470677	0.462000	29.050951	2.238415	0.000000	-0.063061	0.976131	2.291437	-0.117110	1.298254	2.434652	-0.103603	2.373365	2.434652	-0.072072	2.373365	2.005008	-0.058558	1.990526	1.861793	-0.036033	1.512027	1.718578	-0.450437	11.042188	12.744287	0.000000	0.000000	5.648685	-3.132103	-7.424895	91.130199	-27.834711	53.038584	44.619921	87.426688	-16.520210	3.740339	28.969224	-7.331309	11.718291	127.537616	88.427157	-15.688752	5.846707
2.372881	19.020573	-39.716809	110.552997	0.191113	0.531121	1.086400	69.373562	0.982366	-5.773936	30.984226	0.540777	20.371599	-16.537157	0.000000	69.943099	-2.932297	6.300748	27.735797	0.484081	29.711603	2.407386	0.000000	-0.078199	1.114673	2.263194	-0.145223	1.482515	2.404644	-0.128473	2.710216	2.404644	-0.089374	2.710216	1.980295	-0.072616	2.273041	1.838845	-0.044683	1.726629	1.697396	-0.558567	12.609405	12.587208	0.000000	0.000000	5.914765	-3.446809	-6.973611	90.475293	-27.769670	53.584057	44.897418	87.364292	-15.938348	4.527043	31.011075	-6.691020	10.087233	127.870704	88.385300	-15.056820	6.115052
2.389831	20.418112	-38.940666	111.373838	0.191019	0.530024	1.086018	69.073040	1.672454	-6.764542	31.056425	0.542037	20.560678	-16.715752	0.000000	70.432817	-3.484312	7.481471	28.955533	0.505369	30.402004	2.541572	0.000000	-0.094846	1.291171	2.192225	-0.176139	1.717257	2.329239	-0.155823	3.139353	2.329239	-0.108400	3.139353	1.918197	-0.088074	2.632956	1.781183	-0.054195	2.000024	1.644169	-0.677476	14.605984	12.192497	0.000000	0.000000	5.894466	-3.850695	-6.360081	89.667370	-27.811051	54.134401	45.444046	87.343973	-15.451377	5.226556	33.325180	-5.970706	8.485337	127.739987	88.361999	-14.600831	6.548558
2.406780	21.904650	-38.019288	112.322657	0.190600	0.529354	1.085245	68.518388	2.364148	-7.933432	30.912400	0.539523	20.767484	-16.762993	0.000000	70.759289	-4.010865	8.850633	30.041317	0.524320	31.104095	2.670275	0.000000	-0.109730	1.486711	2.086568	-0.203779	1.977326	2.216979	-0.180275	3.614789	2.216979	-0.125410	3.614789	1.825747	-0.101895	3.031701	1.695337	-0.062700	2.302915	1.564926	-0.783790	16.817973	11.604866	0.000000	0.000000	5.567597	-4.269208	-5.597525	88.659834	-27.906627	54.598918	46.209712	87.379818	-15.165327	5.745641	35.861101	-5.343171	7.015623	127.166747	88.360311	-14.334006	7.118667
